HIERARCHY
ROOT Hips
{
    OFFSET   0.000000   0.000000   0.000000
    CHANNELS 6 Xposition Yposition Zposition Zrotation Xrotation Yrotation
    JOINT Chest
    {
        OFFSET   0.000000   8.007240   0.000000
        CHANNELS 3 Zrotation Xrotation Yrotation
        JOINT Chest2
        {
            OFFSET   0.000000  22.077100   0.000000
            CHANNELS 3 Zrotation Xrotation Yrotation
            JOINT Neck
            {
                OFFSET   0.000000  23.254800   0.000000
                CHANNELS 3 Zrotation Xrotation Yrotation
                JOINT Head
                {
                    OFFSET   0.000000  14.370000   1.956600
                    CHANNELS 3 Zrotation Xrotation Yrotation
                    End Site
                    {
                        OFFSET   0.000000  19.566000   0.000000
                    }
                }
            }
            JOINT LeftCollar
            {
                OFFSET   3.911900  19.017000  -0.467064
                CHANNELS 3 Zrotation Xrotation Yrotation
                JOINT LeftShoulder
                {
                    OFFSET  10.383700   0.000000   0.000000
                    CHANNELS 3 Zrotation Xrotation Yrotation
                    JOINT LeftElbow
                    {
                        OFFSET  26.662100   0.001476   0.000517
                        CHANNELS 3 Zrotation Xrotation Yrotation
                        JOINT LeftWrist
                        {
                            OFFSET  28.869000  -0.000025  -0.000106
                            CHANNELS 3 Zrotation Xrotation Yrotation
                            JOINT LeftFinger0
                            {
                                OFFSET   2.044660  -2.323460   3.252850
                                CHANNELS 3 Zrotation Xrotation Yrotation
                                JOINT LeftFinger01
                                {
                                    OFFSET   3.088130   0.000000   0.000000
                                    CHANNELS 3 Zrotation Xrotation Yrotation
                                    JOINT LeftFinger02
                                    {
                                        OFFSET   2.639460   0.000000   0.000000
                                        CHANNELS 3 Zrotation Xrotation Yrotation
                                        End Site
                                        {
                                            OFFSET   2.582190   0.000000   0.000000
                                        }
                                    }
                                }
                            }
                            JOINT LeftFinger1
                            {
                                OFFSET   8.364480   0.000000   3.252850
                                CHANNELS 3 Zrotation Xrotation Yrotation
                                JOINT LeftFinger11
                                {
                                    OFFSET   4.646930   0.000000   0.000000
                                    CHANNELS 3 Zrotation Xrotation Yrotation
                                    JOINT LeftFinger12
                                    {
                                        OFFSET   2.323460   0.000000   0.000000
                                        CHANNELS 3 Zrotation Xrotation Yrotation
                                        End Site
                                        {
                                            OFFSET   2.273050   0.000000   0.000000
                                        }
                                    }
                                }
                            }
                            JOINT LeftFinger2
                            {
                                OFFSET   8.364490   0.000015   1.078090
                                CHANNELS 3 Zrotation Xrotation Yrotation
                                JOINT LeftFinger21
                                {
                                    OFFSET   5.111620   0.000000   0.000000
                                    CHANNELS 3 Zrotation Xrotation Yrotation
                                    JOINT LeftFinger22
                                    {
                                        OFFSET   2.788160   0.000016   0.000000
                                        CHANNELS 3 Zrotation Xrotation Yrotation
                                        End Site
                                        {
                                            OFFSET   2.727660   0.000000   0.000000
                                        }
                                    }
                                }
                            }
                            JOINT LeftFinger3
                            {
                                OFFSET   7.899780   0.000017  -1.078090
                                CHANNELS 3 Zrotation Xrotation Yrotation
                                JOINT LeftFinger31
                                {
                                    OFFSET   4.646930   0.000000   0.000000
                                    CHANNELS 3 Zrotation Xrotation Yrotation
                                    JOINT LeftFinger32
                                    {
                                        OFFSET   2.323470   0.000000   0.000000
                                        CHANNELS 3 Zrotation Xrotation Yrotation
                                        End Site
                                        {
                                            OFFSET   2.273050   0.000000   0.000000
                                        }
                                    }
                                }
                            }
                            JOINT LeftFinger4
                            {
                                OFFSET   7.435090   0.000000  -3.252850
                                CHANNELS 3 Zrotation Xrotation Yrotation
                                JOINT LeftFinger41
                                {
                                    OFFSET   3.717550   0.000000   0.000000
                                    CHANNELS 3 Zrotation Xrotation Yrotation
                                    JOINT LeftFinger42
                                    {
                                        OFFSET   1.858770   0.000000   0.000000
                                        CHANNELS 3 Zrotation Xrotation Yrotation
                                        End Site
                                        {
                                            OFFSET   1.818440   0.000000   0.000000
                                        }
                                    }
                                }
                            }
                        }
                    }
                }
            }
            JOINT RightCollar
            {
                OFFSET  -3.911900  19.017000  -0.467063
                CHANNELS 3 Zrotation Xrotation Yrotation
                JOINT RightShoulder
                {
                    OFFSET -10.383700   0.000019   0.000000
                    CHANNELS 3 Zrotation Xrotation Yrotation
                    JOINT RightElbow
                    {
                        OFFSET -26.662100   0.001175   0.000102
                        CHANNELS 3 Zrotation Xrotation Yrotation
                        JOINT RightWrist
                        {
                            OFFSET -28.869000   0.000016  -0.000079
                            CHANNELS 3 Zrotation Xrotation Yrotation
                            JOINT RightFinger0
                            {
                                OFFSET  -2.044660  -2.323490   3.252850
                                CHANNELS 3 Zrotation Xrotation Yrotation
                                JOINT RightFinger01
                                {
                                    OFFSET  -3.088140   0.000000   0.000000
                                    CHANNELS 3 Zrotation Xrotation Yrotation
                                    JOINT RightFinger02
                                    {
                                        OFFSET  -2.639460   0.000000   0.000000
                                        CHANNELS 3 Zrotation Xrotation Yrotation
                                        End Site
                                        {
                                            OFFSET  -2.582190   0.000000   0.000000
                                        }
                                    }
                                }
                            }
                            JOINT RightFinger1
                            {
                                OFFSET  -8.364480   0.000000   3.252850
                                CHANNELS 3 Zrotation Xrotation Yrotation
                                JOINT RightFinger11
                                {
                                    OFFSET  -4.646930   0.000000   0.000000
                                    CHANNELS 3 Zrotation Xrotation Yrotation
                                    JOINT RightFinger12
                                    {
                                        OFFSET  -2.323470   0.000000   0.000000
                                        CHANNELS 3 Zrotation Xrotation Yrotation
                                        End Site
                                        {
                                            OFFSET  -2.273050   0.000000   0.000000
                                        }
                                    }
                                }
                            }
                            JOINT RightFinger2
                            {
                                OFFSET  -8.364480   0.000000   1.078090
                                CHANNELS 3 Zrotation Xrotation Yrotation
                                JOINT RightFinger21
                                {
                                    OFFSET  -5.111620   0.000000   0.000000
                                    CHANNELS 3 Zrotation Xrotation Yrotation
                                    JOINT RightFinger22
                                    {
                                        OFFSET  -2.788160   0.000000   0.000000
                                        CHANNELS 3 Zrotation Xrotation Yrotation
                                        End Site
                                        {
                                            OFFSET  -2.727660   0.000000   0.000000
                                        }
                                    }
                                }
                            }
                            JOINT RightFinger3
                            {
                                OFFSET  -7.899780   0.000000  -1.078090
                                CHANNELS 3 Zrotation Xrotation Yrotation
                                JOINT RightFinger31
                                {
                                    OFFSET  -4.646930   0.000000   0.000000
                                    CHANNELS 3 Zrotation Xrotation Yrotation
                                    JOINT RightFinger32
                                    {
                                        OFFSET  -2.323470   0.000000   0.000000
                                        CHANNELS 3 Zrotation Xrotation Yrotation
                                        End Site
                                        {
                                            OFFSET  -2.273050   0.000000   0.000000
                                        }
                                    }
                                }
                            }
                            JOINT RightFinger4
                            {
                                OFFSET  -7.435090   0.000000  -3.252850
                                CHANNELS 3 Zrotation Xrotation Yrotation
                                JOINT RightFinger41
                                {
                                    OFFSET  -3.717550   0.000000   0.000000
                                    CHANNELS 3 Zrotation Xrotation Yrotation
                                    JOINT RightFinger42
                                    {
                                        OFFSET  -1.858770   0.000000   0.000000
                                        CHANNELS 3 Zrotation Xrotation Yrotation
                                        End Site
                                        {
                                            OFFSET  -1.818440   0.000000   0.000000
                                        }
                                    }
                                }
                            }
                        }
                    }
                }
            }
        }
    }
    JOINT LeftHip
    {
        OFFSET   9.783040   0.000000   0.000000
        CHANNELS 3 Zrotation Xrotation Yrotation
        JOINT LeftKnee
        {
            OFFSET   0.000032 -41.789100  -0.002222
            CHANNELS 3 Zrotation Xrotation Yrotation
            JOINT LeftAnkle
            {
                OFFSET   0.000087 -41.133200  -0.000135
                CHANNELS 3 Zrotation Xrotation Yrotation
                JOINT LeftToe
                {
                    OFFSET   0.000000  -6.358960  14.674500
                    CHANNELS 3 Zrotation Xrotation Yrotation
                    End Site
                    {
                        OFFSET   0.000000   0.000000   3.913200
                    }
                }
            }
        }
    }
    JOINT RightHip
    {
        OFFSET  -9.783040   0.000000   0.000000
        CHANNELS 3 Zrotation Xrotation Yrotation
        JOINT RightKnee
        {
            OFFSET   0.000047 -41.789100  -0.000896
            CHANNELS 3 Zrotation Xrotation Yrotation
            JOINT RightAnkle
            {
                OFFSET  -0.000117 -41.133300  -0.000248
                CHANNELS 3 Zrotation Xrotation Yrotation
                JOINT RightToe
                {
                    OFFSET   0.000000  -6.358970  14.674500
                    CHANNELS 3 Zrotation Xrotation Yrotation
                    End Site
                    {
                        OFFSET   0.000000   0.000000   3.913200
                    }
                }
            }
        }
    }
}
MOTION
Frames: 5
Frame Time:   0.016667
 -1.717510  89.396200   0.210648  -6.156520 -17.388500 -10.230900   3.843110  10.479200  -2.082170   8.288810  20.782100  -5.015010  12.593300   5.375520  -1.198770  21.100300   9.334050   6.334460   0.211259   3.149520   1.649520 -70.247000  32.438700 -21.946000  -4.972020 -16.936600 -10.058800   6.257320  -5.177110  14.209200  40.044900  27.789400 -62.194400 -24.600100   0.006074   0.004630  -7.300080   0.000083  -0.000028 -34.380000   7.068900 -10.197200 -28.645600  -0.000030  -0.000000 -20.052000  -0.005616   0.000000 -28.681800   2.470390  -4.505060 -41.271400   0.001284   0.001324 -27.486700  -0.001283   0.000294 -28.719800  -0.460185   0.839903 -39.462300  -0.001527   0.003192 -26.281900  -0.001235   0.002362 -35.165700  -0.551733   0.782887 -52.753900  -0.000762   0.005639 -35.134000  -0.001981   0.003231  -4.575630  -2.905540   9.622090  53.513500  32.701900  55.053400 -10.246200 -21.570400 106.275000 -81.065500  16.737800  44.062100 -46.383600  31.150000  51.530100  19.634300   0.001624  -0.000975   4.817180   0.001501   0.001891  58.024000  -0.790953  -0.476852  47.478900   0.009696   0.002354  35.609100   0.011463   0.000450  38.445300  -3.650820  -4.602950  54.239300   0.000850  -0.000558  36.840600  -0.000157  -0.001047  36.300800  -5.305750  -7.149380  54.089100   0.002842  -0.000355  36.192000   0.001210   0.000147  44.844300  -6.317820  -6.286000  67.791400   0.003968  -0.000668  45.149100   0.001448  -0.000520   3.876410  22.625800   2.916680   2.086480   0.021844   4.691640  -3.626420  -4.032870  12.489600  -0.000000   0.000000   0.000000   3.952290  14.753600  -4.849500   1.077820   7.329780   1.821580  -5.839010  -3.753360   6.554850   0.000000   0.000000   0.000000
 -1.717130  89.396600   0.230616  -6.139170 -17.372500 -10.170300   3.834390  10.435200  -2.076840   8.266320  20.695300  -4.998020  12.602000   5.344300  -1.192900  21.109400   9.277340   6.306160   0.194564   3.241600   1.690830 -70.277500  32.395500 -21.947800  -4.936120 -16.956200 -10.045300   6.294370  -5.194200  14.229200  40.079100  27.849700 -62.289200 -24.568000  -0.000589  -0.000186  -7.284020   0.000000  -0.000000 -34.390600   7.107350 -10.246400 -28.659600   0.000000   0.000000 -20.061800  -0.005642  -0.000000 -28.677600   2.497960  -4.555250 -41.316400  -0.002474   0.000000 -27.516700  -0.001280   0.000000 -28.720400  -0.438478   0.800216 -39.509400  -0.001905   0.003192 -26.313300  -0.001236   0.002362 -35.201600  -0.526025   0.745647 -52.807400  -0.000997   0.005643 -35.169700  -0.001981   0.003228  -4.511920  -2.715650   9.656930  52.383800  32.262500  55.549700 -10.525900 -22.212100 105.954000 -79.258300  17.062000  41.860300 -46.040200  31.185000  50.616300  20.032800   0.001585  -0.000541   5.016450   0.001465   0.001835  56.905300  -1.007520  -0.634330  46.566200   0.013546   0.002416  34.924600   0.013745   0.000451  37.758200  -3.750180  -4.836970  54.185600   0.000825  -0.000501  36.618800  -0.000173  -0.001037  35.715500  -5.258690  -7.257450  53.851100   0.002788  -0.000312  35.910700   0.001176   0.000098  44.326100  -6.285900  -6.390200  67.018100   0.003947  -0.000630  44.634100   0.001491  -0.000506   3.881520  22.585500   2.906550   2.080340   0.069459   4.664050  -3.623860  -4.064560  12.468100  -0.000000   0.000000  -0.000000   3.955400  14.764100  -4.857420   1.078010   7.297990   1.795070  -5.839780  -3.753100   6.526220  -0.000000   0.000000   0.000000
 -1.716690  89.397000   0.251796  -6.124050 -17.354900 -10.112300   3.817000  10.390800  -2.078100   8.227970  20.607400  -4.994770  12.620500   5.320340  -1.189330  21.133300   9.231040   6.320780   0.192138   3.344510   1.735430 -70.300200  32.324500 -21.916600  -4.913440 -16.950100 -10.076500   6.325610  -5.238690  14.219100  40.076300  27.850300 -62.292600 -24.569300  -0.000543  -0.000186  -7.284690   0.000000  -0.000000 -34.411800   7.122890 -10.259500 -28.678800  -0.000030   0.000000 -20.075200  -0.005617  -0.000000 -28.676700   2.504420  -4.566790 -41.369800   0.003042   0.000000 -27.552300  -0.001281  -0.000000 -28.720400  -0.438593   0.800412 -39.564400   0.002789   0.003197 -26.350000  -0.001231   0.002355 -35.242600  -0.526264   0.745746 -52.869000  -0.001234   0.005646 -35.210800  -0.001981   0.003227  -4.481000  -2.483510   9.723400  51.378600  31.727900  56.033300 -10.772600 -22.705600 105.777000 -77.279200  17.251100  39.337900 -45.803200  30.973400  49.923600  20.014600   0.001557  -0.000463   5.007360   0.001428   0.001772  55.734800  -1.225940  -0.814703  45.611200   0.013330   0.002473  34.208400   0.013060   0.000446  37.014200  -3.733490  -4.903740  54.135700   0.000796  -0.000459  36.375100  -0.000184  -0.001011  35.324900  -5.408140  -7.608930  53.536200   0.002735  -0.000272  35.653000   0.001146   0.000049  44.028600  -6.487210  -6.702760  66.608500   0.003927  -0.000588  44.361300   0.001533  -0.000494   3.887550  22.571600   2.902070   2.072190   0.058454   4.636420  -3.620890  -4.067530  12.447900  -0.000000   0.000000  -0.000000   3.959080  14.775100  -4.868640   1.076030   7.264750   1.766680  -5.835850  -3.751600   6.504100   0.000000   0.000000   0.000000
 -1.716110  89.397500   0.274081  -6.109860 -17.335700 -10.058500   3.795420  10.348000  -2.081790   8.180120  20.522900  -4.991940  12.643500   5.298990  -1.186760  21.170700   9.188250   6.353360   0.193446   3.443980   1.776370 -70.319000  32.247700 -21.869200  -4.896220 -16.928000 -10.126200   6.349190  -5.281770  14.204900  40.072900  27.851900 -62.294600 -24.578700  -0.000441  -0.000181  -7.289380   0.000000   0.000000 -34.426400   7.127610 -10.261400 -28.691400  -0.000061   0.000000 -20.084000  -0.005591   0.000000 -28.676700   2.505340  -4.568440 -41.403500   0.008557   0.000000 -27.574800  -0.001282  -0.000000 -28.720400  -0.439402   0.801783 -39.599000   0.007483   0.003202 -26.373000  -0.001227   0.002347 -35.268300  -0.527943   0.746437 -52.907600  -0.001472   0.005647 -35.236500  -0.001981   0.003226  -4.468650  -2.248970   9.797900  50.497200  31.140200  56.476300 -10.930700 -23.015800 105.751000 -75.281800  17.304900  36.771500 -45.894600  30.837900  49.584500  19.887500   0.001531  -0.000440   4.943750   0.001390   0.001708  54.623900  -1.428040  -0.996504  44.705000   0.011819   0.002524  33.528800   0.010857   0.000442  36.360300  -3.619190  -4.912660  54.078300   0.000769  -0.000420  36.153100  -0.000195  -0.000987  35.084800  -5.558440  -7.863460  53.239100   0.002681  -0.000232  35.447900   0.001119   0.000000  43.840700  -6.689320  -6.927200  66.360900   0.003908  -0.000550  44.196400   0.001575  -0.000481   3.893970  22.566100   2.900800   2.062600   0.038977   4.608620  -3.616100  -4.068190  12.429700  -0.000000   0.000000  -0.000000   3.961940  14.786200  -4.879250   1.072420   7.230560   1.749770  -5.828950  -3.748270   6.482010   0.000000   0.000000   0.000000
 -1.715700  89.398000   0.297433  -6.095740 -17.314400 -10.010600   3.770000  10.308900  -2.089630   8.124780  20.445600  -4.997210  12.665700   5.282100  -1.185170  21.204600   9.153690   6.405820   0.199414   3.529450   1.815920 -70.332100  32.180600 -21.812400  -4.871750 -16.877700 -10.169300   6.358790  -5.298110  14.199800  40.086600  27.902200 -62.312700 -24.611800  -0.000287  -0.000106  -7.306240   0.000000   0.000000 -34.426100   7.107970 -10.234000 -28.688300  -0.000030   0.000000 -20.081800  -0.005614   0.000000 -28.680600   2.481760  -4.525310 -41.387200   0.008519   0.000000 -27.563900  -0.001283   0.000000 -28.719800  -0.461020   0.841235 -39.580300   0.007433   0.003202 -26.360600  -0.001229   0.002352 -35.255200  -0.554064   0.783053 -52.888400  -0.001728   0.005645 -35.223700  -0.001981   0.003221  -4.467200  -2.035360   9.882980  49.769200  30.557400  56.862800 -10.993700 -23.139800 105.803000 -73.308600  17.267900  34.363500 -46.563100  30.705300  49.903300  18.827600   0.001502  -0.000393   4.413790   0.001349   0.001651  53.624600  -1.605090  -1.172560  43.889700   0.006329   0.002560  32.917300   0.005527   0.000446  35.962300  -3.179210  -4.420260  53.995400   0.000749  -0.000373  35.990200  -0.000208  -0.000979  35.008300  -5.443750  -7.714280  53.090600   0.002623  -0.000188  35.350200   0.001093  -0.000051  43.691100  -6.546020  -6.804200  66.107300   0.003896  -0.000528  44.027500   0.001618  -0.000458   3.897740  22.558500   2.903420   2.052980   0.016144   4.577880  -3.613450  -4.067010  12.414700   0.000000   0.000000   0.000000   3.960270  14.796300  -4.884970   1.068750   7.196880   1.749650  -5.819270  -3.741960   6.450670  -0.000000   0.000000   0.000000
